<?xml version="1.0" standalone="no"?>
<!DOCTYPE svg PUBLIC "-//W3C//DTD SVG 20010904//EN"
 "http://www.w3.org/TR/2001/REC-SVG-20010904/DTD/svg10.dtd">
<svg version="1.0" xmlns="http://www.w3.org/2000/svg"
 width="1188.000000pt" height="1280.000000pt" viewBox="0 0 1188.000000 1280.000000"
 preserveAspectRatio="xMidYMid meet">
<metadata>
Created by potrace 1.15, written by Peter Selinger 2001-2017
</metadata>
<g transform="translate(0.000000,1280.000000) scale(0.100000,-0.100000)"
fill="#622ffc" stroke="none">
<path d="M3235 12688 c-149 -126 -333 -311 -402 -403 -77 -103 -108 -166 -173
-357 -32 -95 -82 -240 -110 -323 -29 -82 -78 -226 -110 -320 -32 -93 -82 -237
-110 -320 -29 -82 -78 -226 -110 -320 -71 -206 -243 -705 -312 -905 -27 -80
-52 -153 -55 -163 -9 -31 -24 -14 -52 60 -58 147 -148 289 -248 386 -90 88
-162 130 -343 202 -183 72 -312 104 -450 112 l-95 5 81 -83 c80 -83 81 -85
104 -174 50 -196 159 -465 245 -603 l26 -42 -38 14 c-203 79 -417 74 -738 -19
-94 -28 -253 -98 -307 -136 -29 -21 -30 -23 -11 -30 11 -4 60 -15 109 -24 86
-16 91 -18 159 -79 218 -192 436 -332 645 -414 102 -40 210 -62 310 -62 106 0
176 15 259 57 30 15 59 29 63 31 4 2 -29 -101 -73 -230 -44 -128 -107 -309
-139 -403 -32 -93 -81 -237 -110 -320 -164 -475 -163 -470 -167 -600 -3 -86 0
-135 10 -175 9 -30 14 -57 11 -59 -5 -5 -87 19 -209 63 -224 79 -364 103 -509
85 -50 -6 -93 -13 -95 -15 -11 -10 31 -66 104 -140 91 -93 159 -132 300 -175
l89 -26 -44 -8 c-327 -51 -599 -294 -690 -617 -27 -93 -36 -268 -21 -367 14
-89 65 -228 112 -306 19 -32 60 -85 91 -119 l57 -63 -35 -106 c-49 -154 -43
-231 23 -293 44 -41 92 -62 352 -151 270 -92 313 -98 388 -62 61 29 96 86 153
247 27 75 49 128 50 117 2 -84 23 -319 36 -405 35 -239 105 -459 192 -604 86
-145 276 -321 320 -297 10 5 88 39 173 74 85 36 314 132 509 215 195 82 457
193 582 246 126 53 230 96 233 96 13 0 -9 -236 -26 -275 -5 -11 -22 -105 -39
-210 -16 -104 -35 -216 -41 -249 -6 -32 -8 -74 -4 -95 3 -20 -4 -103 -15 -186
-94 -680 -114 -935 -115 -1430 0 -408 5 -490 40 -700 89 -516 276 -864 578
-1073 182 -126 300 -157 592 -156 138 0 189 4 272 22 454 100 737 416 880 982
27 109 71 338 73 385 1 6 16 -36 35 -91 39 -119 59 -161 130 -270 181 -279
475 -454 834 -495 267 -30 570 52 806 219 153 108 300 281 380 447 78 162 100
247 134 520 68 539 134 1061 152 1195 28 205 28 393 1 516 -65 291 -222 523
-469 693 l-67 47 -13 114 c-22 193 -50 193 267 0 151 -92 455 -276 675 -410
l400 -242 64 6 c308 32 563 392 770 1084 5 20 25 30 103 56 279 94 489 317
564 601 26 98 27 331 1 430 -26 100 -98 240 -162 318 -31 37 -54 67 -51 67 2
0 29 -11 61 -25 114 -51 198 -68 314 -62 104 4 211 28 211 47 0 17 -116 126
-180 170 -78 53 -195 108 -327 154 -130 45 -204 77 -201 86 2 4 27 27 56 50
65 50 134 141 178 235 19 39 144 374 280 745 340 934 1140 3125 1321 3620 64
173 123 340 131 370 22 75 21 364 -1 520 -24 168 -69 390 -79 390 -16 0 -199
-114 -281 -176 -88 -66 -195 -173 -245 -246 -59 -86 -111 -206 -227 -523 -120
-327 -385 -1055 -825 -2260 -136 -374 -359 -984 -495 -1355 -326 -890 -307
-831 -313 -969 -3 -71 0 -134 8 -168 6 -30 10 -56 8 -58 -2 -2 -55 19 -118 46
-264 114 -437 153 -577 130 -42 -7 -86 -18 -99 -23 -23 -11 -23 -11 29 -71 85
-99 184 -170 302 -217 72 -29 87 -40 55 -40 -44 0 -124 -46 -168 -95 -23 -26
-42 -51 -42 -55 0 -12 -308 -53 -565 -75 -215 -19 -345 -19 -515 0 -153 17
-233 34 -337 71 -70 25 -73 27 -73 58 0 17 -4 45 -9 62 l-9 31 77 33 c911 395
1508 1043 1612 1753 16 105 16 329 0 434 -35 241 -135 495 -280 712 -429 643
-1260 1128 -2293 1335 -350 71 -812 112 -1163 104 l-162 -3 -6 320 c-4 176 -7
449 -7 608 0 223 -3 287 -12 287 -20 0 -992 -162 -997 -167 -3 -2 1 -34 8 -71
14 -69 36 -187 72 -377 11 -60 24 -130 29 -155 5 -25 23 -119 40 -210 17 -91
35 -185 40 -210 23 -114 23 -119 -2 -124 -13 -3 -92 -21 -177 -40 -85 -20
-158 -33 -162 -29 -4 5 -120 208 -258 453 l-250 446 48 149 c65 200 74 261 69
430 -4 107 -11 163 -32 240 -31 119 -97 297 -111 302 -6 2 -64 -43 -130 -99z
m-157 -2154 c23 -29 42 -54 42 -57 0 -6 -151 -87 -162 -87 -3 0 9 48 29 106
19 58 38 102 42 97 4 -4 26 -31 49 -59z m-1022 -3051 c275 -352 744 -685 1276
-906 l38 -16 -23 -62 c-20 -57 -25 -63 -69 -80 -262 -102 -631 -126 -1127 -74
-80 9 -175 18 -211 21 -96 8 -103 10 -129 50 -20 33 -21 36 -5 30 69 -27 179
-47 264 -48 97 -1 240 18 240 31 0 16 -71 100 -120 143 -97 85 -250 152 -507
223 l-101 28 76 72 c108 102 157 188 232 410 67 198 91 265 96 265 1 0 33 -39
70 -87z"/>
</g>
</svg>
